<?xml version="1.0" encoding="utf-8"?>
<!-- Generator: Adobe Illustrator 16.0.0, SVG Export Plug-In . SVG Version: 6.00 Build 0)  -->
<!DOCTYPE svg PUBLIC "-//W3C//DTD SVG 1.1//EN" "http://www.w3.org/Graphics/SVG/1.1/DTD/svg11.dtd">
<svg version="1.1" id="Layer_1" xmlns="http://www.w3.org/2000/svg" xmlns:xlink="http://www.w3.org/1999/xlink" x="0px" y="0px"
	 width="841.89px" height="595.28px" viewBox="0 0 841.89 595.28" enable-background="new 0 0 841.89 595.28" xml:space="preserve">
<path fill-rule="evenodd" clip-rule="evenodd" fill="#4FA542" d="M510.488,318.701c-0.08-0.914-0.154-1.838-0.373-2.99
	c-0.428-2.287-0.846-4.445-1.482-6.529c-0.131-0.441-0.377-1.254-2.271-1.271c-2.002,0-3.941,0.514-6.416,1.344
	c-6.646,2.188-13.25,5.617-20.779,10.783c-0.258,0.174-0.525,0.324-1.162,0.695c-0.299,0.176-0.613,0.246-0.934,0.246
	c-0.549,0-1.115-0.227-1.596-0.566c-0.773-0.533-1.156-1.703-1.035-2.645c0.006-0.096,0.086-0.605,0.102-0.703
	c1.145-5.316,1.551-11.023,1.246-17.42c-0.312-6.46-1.277-12.474-2.934-18.398c-3.066-10.905-8.15-21.929-15.521-33.706
	c-7.807-12.517-17.252-24.334-28.053-35.143l-1.447-1.469c-5.453-5.515-10.62-10.716-17.457-13.471h-1.567l-0.641,0.257
	c-0.636,0.229-1.272,0.472-1.86,0.752c-3.325,1.704-6.18,4.106-8.528,6.24c-14.401,13.039-26.725,27.75-36.644,43.697
	c-6.767,10.933-11.548,21.281-14.61,31.64c-1.985,6.718-3.116,13.729-3.354,20.833c-0.147,4.539,0.064,8.613,0.646,12.441
	c0.147,0.988,0.315,1.951,0.502,2.971l0.313,1.805c0.167,0.996-0.235,2.002-1.036,2.574c-0.416,0.291-0.893,0.443-1.373,0.443
	c-0.449,0-0.897-0.133-1.295-0.4l-1.409-0.914c-8.18-5.582-15.333-9.127-22.503-11.17c-1.435-0.41-2.669-0.625-3.773-0.676h-0.463
	c-1.853,0-2.342,0.248-2.896,2.576c-0.438,1.836-0.68,3.736-0.933,5.762l-0.328,2.471c-0.083,0.564-0.136,1.16-0.19,1.76
	l-0.057,0.48l-0.021,6.736l0.073,0.48c0.085,0.482,0.157,0.965,0.177,1.447c0.375,9.727,2.28,19.58,5.838,30.133
	c2.645,7.844,5.215,13.646,8.343,18.791c7.074,11.703,16.789,21.581,28.872,29.37c11.392,7.342,24.128,12.32,37.87,14.826
	c3.256,0.598,6.707,0.781,10.108,1.078c5.287,11.805,13.232,21.871,24.924,28.443c8.979,5.025,19.084,6.938,29.057,7.389l1.15-2.279
	c-5.207-1.047-10.723-2.4-15.352-5.01c-9.693-5.459-16.324-16.82-20.54-28.324c14.43-1.143,28.184-4.9,40.911-11.51
	c15.387-8.012,27.6-19.148,36.309-33.103c4.393-7.043,7.576-14.529,9.467-22.26l0.453-1.867c1.135-4.604,2.305-9.365,3.197-14.057
	c0.43-2.242,0.637-4.535,0.842-6.969c0.1-1.148,0.201-2.301,0.326-3.473c0.043-0.398,0.115-0.82,0.189-1.221l0.045-0.02l0.018-9.393
	L510.488,318.701z"/>
</svg>
